<?xml version="1.0" encoding="UTF-8"?>
<svg version="1.1" viewBox="0 0 24 24" xmlns="http://www.w3.org/2000/svg" xmlns:xlink="http://www.w3.org/1999/xlink">
  <defs>
    <path id="a" d="m16 26c5.5228 0 10-4.4772 10-10s-4.4772-10-10-10-10 4.4772-10 10 4.4772 10 10 10zm0 2c-6.6274 0-12-5.3726-12-12s5.3726-12 12-12 12 5.3726 12 12-5.3726 12-12 12zm-0.027164-8.7295c0.41055 0 0.75268 0.13072 1.0264 0.39215 0.2737 0.26143 0.41055 0.58822 0.41055 0.98037s-0.13685 0.71894-0.41055 0.98037-0.61583 0.39215-1.0264 0.39215-0.75268-0.13072-1.0264-0.39215c-0.2737-0.26143-0.41055-0.58822-0.41055-0.98037s0.13685-0.71894 0.41055-0.98037 0.61583-0.39215 1.0264-0.39215zm-0.56451-10.392h1.129c0.20528 0 0.36779 0.057189 0.48753 0.17157 0.11974 0.11438 0.16251 0.25326 0.1283 0.41666l-0.35923 8.2351c0 0.1634-0.059872 0.30228-0.17962 0.41666-0.11974 0.11438-0.26515 0.17157-0.43621 0.17157h-0.41055c-0.17106 0-0.31647-0.057189-0.43621-0.17157-0.11974-0.11438-0.17962-0.23692-0.17962-0.36764l-0.35923-8.2842c-0.034213-0.1634 0.0085534-0.30228 0.1283-0.41666 0.11974-0.11438 0.28225-0.17157 0.48753-0.17157z"/>
  </defs>
  <g fill="none" fill-rule="evenodd">
    <g transform="translate(-496 -240)">
      <g transform="translate(475 227)">
        <g transform="translate(17 9)">
          <mask id="b" fill="white">
            <use xlink:href="#a"/>
          </mask>
          <use fill="#979797" fill-rule="nonzero" xlink:href="#a"/>
          <g fill="#FF0043" mask="url(#b)">
            <rect width="32" height="32"/>
          </g>
        </g>
      </g>
    </g>
  </g>
</svg>
