<?xml version="1.0" encoding="UTF-8"?>
<svg width="219px" height="17px" viewBox="0 0 219 17" version="1.1" xmlns="http://www.w3.org/2000/svg" xmlns:xlink="http://www.w3.org/1999/xlink">
    <!-- Generator: sketchtool 56.3 (101010) - https://sketch.com -->
    <title>2246FC3E-0AAA-4B3B-B761-860D5C60A238SVG</title>
    <desc>Created with sketchtool.</desc>
    <g id="ES.COM-&gt;-ESP-Modal-" stroke="none" stroke-width="1" fill="none" fill-rule="evenodd">
        <g id="03" transform="translate(-78.000000, -189.000000)">
            <g id="Elements/Eurosport-Player-Logo" transform="translate(78.000000, 189.000000)">
                <g id="EUROSPORT-PLAYER">
                    <g id="PLAYER" transform="translate(149.579063, 0.000000)">
                        <path d="M68.1209434,16.6192005 L0.840355838,16.6192005 C0.540840737,16.6192005 0.29808714,16.3787524 0.29808714,16.082082 L0.29808714,0.625872015 C0.29808714,0.329201607 0.540840737,0.0887536007 0.840355838,0.0887536007 L68.1209434,0.0887536007 C68.4204585,0.0887536007 68.6632121,0.329201607 68.6632121,0.625872015 L68.6632121,16.082082 C68.6632121,16.3787524 68.4204585,16.6192005 68.1209434,16.6192005" id="Fill-15" fill="#D50032"></path>
                        <path d="M60.0201153,2.84860147 C62.4126663,2.84860147 64.1979762,4.52077584 64.1979762,6.8966142 C64.1979762,9.52704455 62.0992285,10.3845245 62.0992285,10.3845245 L64.7448858,13.5630349 C64.9344478,13.7949965 64.8330625,14.1238445 64.5328334,14.1238445 L62.4715697,14.1238445 C62.3516209,14.1238445 62.2095386,14.0732797 62.0963726,13.9166349 L58.4532836,9.16637256 C58.3083454,8.96764936 58.4250814,8.73144457 58.6210692,8.73144457 L59.6206428,8.73144457 C60.3114196,8.73144457 60.6662683,8.67840457 60.8647551,8.59071177 C61.0664547,8.50054377 61.2345973,8.40082857 61.3820344,8.24241578 C61.5312565,8.08294218 61.6494204,7.88916938 61.7333132,7.66923019 C61.8179199,7.44575499 61.8618298,7.2024782 61.8618298,6.9485934 C61.8618298,6.69117261 61.8200619,6.44683501 61.739025,6.22159181 C61.6608441,6.00518862 61.5462501,5.81742702 61.4002409,5.66467182 C61.2528038,5.51120943 61.0735946,5.38709583 60.866897,5.29728143 C60.6619844,5.20746703 60.4313685,5.16185263 60.1804041,5.16185263 L57.8167694,5.16185263 L57.8167694,13.7476141 C57.8167694,13.9495197 57.6518397,14.1238445 57.4483551,14.1238445 L55.8568911,14.1238445 C55.6526924,14.1238445 55.4870488,13.9495197 55.4870488,13.7476141 L55.4870488,3.21457747 C55.4870488,3.01337907 55.6526924,2.84860147 55.8568911,2.84860147 L60.0201153,2.84860147" id="Fill-21" fill="#FFFFFE"></path>
                        <path d="M52.9445609,11.8123613 L47.9945292,11.8123613 L47.9945292,9.65964455 L52.1538267,9.65964455 C52.3580254,9.65964455 52.523669,9.49557415 52.523669,9.29331496 L52.524026,7.71024779 C52.524026,7.50798859 52.3583823,7.34285739 52.1545407,7.34285739 L47.9945292,7.34285739 L47.9945292,5.16821743 L52.9185006,5.16821743 C53.1223422,5.16821743 53.2876289,4.98187024 53.2876289,4.77996464 L53.2883429,3.19689747 C53.2883429,2.99463827 53.1234132,2.84860147 52.9185006,2.84860147 L46.0275109,2.84860147 C45.8243833,2.84860147 45.6580257,2.99463827 45.6580257,3.19689747 L45.6580257,13.7617581 C45.6580257,13.9636637 45.8243833,14.1238445 46.0275109,14.1238445 L52.9445609,14.1238445 C53.1480456,14.1238445 53.3136892,13.9636637 53.3136892,13.7631725 L53.3140462,12.1786909 C53.3140462,11.9774925 53.1480456,11.8123613 52.9445609,11.8123613" id="Fill-20" fill="#FFFFFE"></path>
                        <path d="M39.912978,9.65257255 L39.912978,13.7497357 C39.912978,13.9742717 39.7280568,14.1238445 39.5006538,14.1238445 L37.9634523,14.1238445 C37.7364063,14.1238445 37.5521991,13.9742717 37.5521991,13.7497357 L37.5521991,9.65257255 L33.5903174,3.31712147 C33.4364545,3.05899347 33.5903174,2.84860147 33.8505636,2.84860147 L35.7443987,2.84860147 C36.0521246,2.84860147 36.0974624,2.89103347 36.2334758,3.10213267 L38.7291971,7.32128779 L41.239912,3.08268467 C41.3423683,2.91083507 41.4016288,2.84860147 41.7093547,2.84860147 L43.6085447,2.84860147 C43.8687908,2.84860147 44.0222968,3.05899347 43.8687908,3.31712147 L39.912978,9.65257255" id="Fill-17" fill="#FFFFFE"></path>
                        <path d="M28.383966,2.84860147 C28.1412124,2.84860147 28.0944466,2.97554387 28.0230485,3.13395667 L23.3004201,13.7002317 C23.2175982,13.9113309 23.3050609,14.1238445 23.5781587,14.1238445 L25.3638256,14.1238445 C25.6686956,14.1238445 25.7590142,14.0007917 25.8693243,13.7804989 L26.6604154,11.9647629 L31.1256536,11.9647629 L31.9167448,13.7804989 C32.0281258,14.0007917 32.1177305,14.1238445 32.4226004,14.1238445 L34.181136,14.1238445 C34.5109953,14.1238445 34.561688,13.8826893 34.4770812,13.6885629 L29.7633776,3.13395667 C29.6926934,2.97554387 29.6448567,2.84860147 29.4024601,2.84860147 L28.383966,2.84860147 Z M30.1189403,9.63347816 L30.1189403,9.63347816 L28.8933916,6.7841695 L27.6674859,9.63347816 L30.1189403,9.63347816 L30.1189403,9.63347816 Z" id="Fill-18" fill="#FFFFFE"></path>
                        <path d="M21.3983739,11.7971565 L17.4439891,11.7971565 L17.4443461,3.20609107 C17.4443461,3.00241747 17.2772745,2.84860147 17.0720049,2.84860147 L15.4662612,2.84860147 C15.2606346,2.84860147 15.094277,3.00241747 15.094277,3.20609107 L15.094277,13.7575149 C15.094277,13.9604813 15.2606346,14.1238445 15.4662612,14.1238445 L21.3980169,14.1238445 C21.6032865,14.1238445 21.7692871,13.9608349 21.7692871,13.7585757 L21.7700011,12.1652541 C21.7700011,11.9619341 21.6032865,11.7971565 21.3983739,11.7971565" id="Fill-19" fill="#FFFFFE"></path>
                        <path d="M7.04092567,8.6936094 L7.04092567,5.16185266 L9.39277971,5.16185266 C10.4262675,5.16185266 11.0727774,5.92951824 11.0727774,6.92773103 C11.0727774,7.92629741 10.4262675,8.6936094 9.39277971,8.6936094 L7.04092567,8.6936094 Z M9.18358326,2.84860147 L5.07569245,2.84860147 C4.87185082,2.84860147 4.70620718,3.01373267 4.70620718,3.21457747 L4.70620718,13.7483213 C4.70620718,13.9495197 4.87185082,14.1238445 5.07569245,14.1238445 L6.67144042,14.1238445 C6.87528206,14.1238445 7.04092569,13.9495197 7.04092569,13.7483213 L7.04092569,11.0068605 L9.18358326,11.0068605 C12.079491,11.0068605 13.4217756,8.96552776 13.4217756,6.931267 C13.4217756,4.89665264 12.079491,2.84860147 9.18358326,2.84860147 L9.18358326,2.84860147 Z" id="Fill-22" fill="#FFFFFE"></path>
                    </g>
                    <g id="EUROSPORT" fill="#FFFFFF">
                        <path d="M143.279244,0.324958401 L132.226101,0.324958401 C131.936225,0.324958401 131.700254,0.558334399 131.700254,0.845457598 L131.700254,3.09647519 C131.700254,3.38359838 131.936225,3.61732798 132.226101,3.61732798 L136.090524,3.61732798 L136.090524,15.8550703 C136.090524,16.1421935 136.326495,16.3755695 136.616372,16.3755695 L138.889331,16.3755695 C139.179207,16.3755695 139.414821,16.1421935 139.414821,15.8550703 L139.414821,3.61732798 L143.279244,3.61732798 C143.56912,3.61732798 143.804734,3.38359838 143.804734,3.09647519 L143.804734,0.845457598 C143.804734,0.558334399 143.56912,0.324958401 143.279244,0.324958401" id="Fill-4"></path>
                        <path d="M131.895171,15.4901557 L128.204245,10.9552355 C128.204245,10.9552355 131.184402,9.88099871 131.184402,6.13708179 C131.184402,5.36588017 131.053387,4.62084494 130.79564,3.92283852 C130.533966,3.2163457 130.142347,2.59012008 129.632921,2.06078086 C129.124924,1.53462405 128.499833,1.10959683 127.775499,0.797368023 C127.048667,0.484432014 126.221519,0.325665609 125.316905,0.325665609 L119.310539,0.325665609 C119.020662,0.325665609 118.784692,0.559395216 118.784692,0.846164825 L118.784692,15.8402197 C118.784692,16.1276965 119.020662,16.3614261 119.310539,16.3614261 L121.576001,16.3614261 C121.865877,16.3614261 122.101491,16.1276965 122.101491,15.8402197 L122.101134,3.61874251 L125.465056,3.61874251 C125.822761,3.61874251 126.151549,3.68309771 126.442853,3.81004012 C126.737014,3.93875052 126.992976,4.11484333 127.202886,4.33407533 C127.410655,4.55118574 127.572372,4.81815375 127.68411,5.12649296 C127.800489,5.44685457 127.859035,5.79479698 127.859035,6.16112659 C127.859035,6.523213 127.797633,6.86868021 127.676613,7.18727382 C127.557021,7.50127063 127.388522,7.77566424 127.176112,8.00338265 C126.966559,8.22862585 126.727018,8.37077306 126.439998,8.49806906 C126.157261,8.62395067 125.652833,8.69962107 124.66861,8.69962107 C124.66861,8.69962107 123.540163,8.69962107 123.261353,8.69962107 C122.982544,8.69962107 122.769063,8.94784828 122.982187,9.28907229 L128.243514,16.1432549 C128.341329,16.2797445 128.501261,16.3614261 128.671189,16.3614261 L131.576378,16.3614261 C132.00441,16.3614261 132.289645,15.9721125 131.895171,15.4901557" id="Fill-13"></path>
                        <path d="M113.427333,10.5758222 C113.172442,11.1942686 112.821877,11.7175966 112.384206,12.1316622 C111.945822,12.5471422 111.431042,12.8643214 110.854145,13.0747134 C110.267966,13.288995 109.63288,13.3975502 108.967092,13.3975502 C108.286311,13.3975502 107.643728,13.288995 107.05755,13.0747134 C106.482795,12.8650286 105.977296,12.5496174 105.55569,12.1376734 C105.130157,11.722547 104.784948,11.1970974 104.529699,10.5758222 C104.271952,9.95065743 104.141293,9.21021904 104.141293,8.37536946 C104.141293,7.54087347 104.271952,6.80043508 104.529699,6.17491669 C104.784591,5.55505591 105.132656,5.03031352 105.564258,4.61554072 C105.994432,4.20147513 106.505999,3.88111354 107.085038,3.66294234 C107.670146,3.44264954 108.310944,3.33091195 108.989583,3.33091195 C109.653228,3.33091195 110.28653,3.44264954 110.87128,3.66329594 C111.448177,3.88005274 111.959031,4.20359673 112.389561,4.62402712 C112.822234,5.04693271 113.171371,5.57662551 113.427333,6.19719349 C113.684723,6.82306548 113.815382,7.55607827 113.815382,8.37536946 C113.815382,9.20951184 113.684723,9.95030383 113.427333,10.5758222 Z M114.753196,2.26516157 C114.004587,1.55831518 113.122463,1.01377119 112.1311,0.646027194 C111.146877,0.281112 110.091613,0.0961792028 108.995295,0.0961792028 C107.913256,0.0961792028 106.862633,0.281112 105.871984,0.645673594 C104.873124,1.01306399 103.983861,1.55760798 103.228826,2.26374717 C102.473077,2.97059356 101.864408,3.84787514 101.419597,4.87190073 C100.974787,5.89521911 100.749526,7.06669589 100.749526,8.35415347 C100.749526,9.65540145 100.971217,10.8300606 101.408174,11.8452462 C101.84513,12.8621998 102.446302,13.736299 103.194198,14.4427918 C103.941736,15.1492846 104.82386,15.6938286 105.81665,16.0619262 C106.800873,16.4271949 107.855781,16.6117741 108.952099,16.6117741 C110.152301,16.6117741 111.272538,16.4109293 112.281036,16.015251 C113.29596,15.6170974 114.178798,15.0442654 114.905631,14.312667 C115.628894,13.5849582 116.202221,12.7041406 116.60919,11.694259 C117.014017,10.6879134 117.220001,9.56417265 117.220001,8.35415347 C117.220001,7.06740309 116.994383,5.89592631 116.549929,4.87190073 C116.104762,3.84858234 115.500377,2.97165436 114.753196,2.26516157 L114.753196,2.26516157 Z" id="Fill-9"></path>
                        <path d="M96.0868721,7.18727365 C95.9672803,7.50127045 95.7987807,7.77566404 95.5863713,8.00338244 C95.3768178,8.22862564 95.1372772,8.37077284 94.8502567,8.49806884 C94.5678772,8.62395044 94.0630925,8.69962084 93.0788694,8.69962084 L90.5260297,8.69962084 L90.5260297,3.61874247 L93.8753154,3.61874247 C94.23302,3.61874247 94.5618083,3.68309767 94.8531126,3.81004007 C95.1472729,3.93875047 95.4032351,4.11484326 95.6131456,4.33407526 C95.8209141,4.55118566 95.9829879,4.81815366 96.0943689,5.12649286 C96.2107479,5.44685446 96.2692943,5.79479686 96.2692943,6.16112645 C96.2692943,6.52321285 96.2078919,6.86868005 96.0868721,7.18727365 Z M99.2208928,3.92283852 C98.9588617,3.2163457 98.5676,2.59012008 98.0581744,2.06078086 C97.5498198,1.53462405 96.9250863,1.10959683 96.2007523,0.797368023 C95.4739195,0.484432014 94.6464152,0.325665609 93.742158,0.325665609 L87.7290083,0.325665609 C87.4391319,0.325665609 87.2035181,0.559395216 87.2035181,0.846164825 L87.2035181,15.8402197 C87.2035181,16.1276965 87.4391319,16.3614261 87.7290083,16.3614261 L90.0008965,16.3614261 C90.2911299,16.3614261 90.5267437,16.1276965 90.5267437,15.8402197 L90.5260297,11.9990628 L93.742158,11.9990628 C94.6457013,11.9990628 95.4682076,11.844186 96.1879007,11.5390292 C96.9061658,11.2338723 97.5280434,10.8116739 98.036755,10.2848099 C98.5440386,9.7590067 98.9374423,9.14268188 99.2066132,8.45280826 C99.4739992,7.76753144 99.6092986,6.89838261 99.6092986,6.13708179 C99.6092986,5.36588017 99.47864,4.62084494 99.2208928,3.92283852 L99.2208928,3.92283852 Z" id="Fill-5"></path>
                        <path d="M76.6133971,4.92918403 C76.5987605,5.26121443 76.6855092,5.46276644 76.8129549,5.64098084 C76.9561081,5.84324004 77.1588787,6.01296804 77.415198,6.14521444 C77.7000765,6.29231204 78.0363616,6.40829284 78.4147716,6.48997444 C78.8292377,6.57908164 79.2533425,6.66217765 79.6763764,6.73678725 C80.4439061,6.85630405 81.2014401,7.00764485 81.927202,7.18550565 C82.685807,7.37185285 83.3580203,7.65119685 83.9281343,8.01611206 C84.5200247,8.39587846 84.9905382,8.90081926 85.3282513,9.51714407 C85.6688204,10.1391265 85.8205414,10.9315441 85.7787735,11.8721201 C85.7384335,12.7854689 85.5021058,13.5651569 85.075859,14.1917361 C84.658537,14.8045249 84.1201952,15.3045153 83.4747562,15.6789777 C82.8421689,16.0456609 82.2177924,16.3161649 81.4445507,16.4590193 C80.6859457,16.5983377 79.8373791,16.6411233 79.0959097,16.6089457 C77.2552662,16.5290321 74.5382108,15.4823761 73.1752208,13.6348161 C73.0666956,13.4870113 72.9338951,13.2345409 73.2266274,12.9389313 C73.5193597,12.6443825 74.9198338,11.2328113 74.9198338,11.2328113 C75.2025703,10.9375553 75.4770961,11.1468865 75.594189,11.3162609 C76.391706,12.4714721 77.9799571,13.3331953 79.2279962,13.3872961 C79.8841449,13.4155841 79.9623258,13.3897713 80.372508,13.3363777 C80.7444922,13.2886417 81.0743515,13.1924625 81.3827914,13.0531441 C81.6662419,12.9254945 81.9039976,12.7550593 82.0907037,12.5188545 C82.2634871,12.2996225 82.3641585,11.9888081 82.3887908,11.6295505 C82.4123522,11.2833761 82.3152508,11.0050929 82.154248,10.7812641 C81.9786087,10.5372801 81.7358551,10.3498721 81.4449077,10.2002993 C81.1175474,10.0316321 80.7423503,9.92449127 80.3271702,9.84740647 C79.8823599,9.76501767 79.4393346,9.69146887 79.0102319,9.63029607 C78.3016056,9.54083527 77.5951212,9.39762727 76.9150542,9.20491526 C76.2117827,9.00619206 75.5824083,8.72508006 75.0451375,8.36935846 C74.4868042,8.00055366 74.0359251,7.52177925 73.7057088,6.94717925 C73.3679957,6.35878884 73.2134188,5.69154564 73.2501888,4.84856323 C73.2876728,3.99992323 73.5011532,3.25418082 73.8834901,2.63043042 C74.2615431,2.01410561 74.758117,1.50633601 75.3596462,1.1198512 C75.9472527,0.742560001 76.6244638,0.465337599 77.3716451,0.297377598 C78.8238828,-0.0289952047 80.2771915,0.0254591957 81.7172915,0.477006399 C83.2698436,0.963913603 84.5157408,2.14423041 85.0908526,2.98014082 C85.1961648,3.13360322 85.3007631,3.37617282 85.076573,3.62652162 C84.8516689,3.87722402 83.481182,5.20569923 83.481182,5.20569923 C83.1852368,5.48575044 82.8828658,5.42033444 82.7154372,5.17599683 C81.8743674,3.95148003 80.7919719,3.40269282 79.5360791,3.32065762 C78.1891536,3.23225762 76.6751565,3.53140322 76.6133971,4.92918403" id="Fill-7"></path>
                        <path d="M68.347993,10.5758222 C68.0934587,11.1942686 67.7425369,11.7175966 67.3048665,12.1316622 C66.866839,12.5471422 66.3520586,12.8643214 65.7748048,13.0747134 C65.1886263,13.288995 64.55354,13.3975502 63.8877526,13.3975502 C63.2069715,13.3975502 62.5643885,13.288995 61.97821,13.0747134 C61.4034551,12.8650286 60.8983134,12.5496174 60.4763506,12.1376734 C60.0511748,11.722547 59.7059649,11.1970974 59.4503596,10.5758222 C59.1926124,9.95065743 59.0623109,9.21021904 59.0623109,8.37536946 C59.0623109,7.54087347 59.1926124,6.80043508 59.4503596,6.17491669 C59.7052509,5.55505591 60.0536737,5.03031352 60.4852753,4.61554072 C60.915092,4.20147513 61.4266595,3.88111354 62.0060552,3.66294234 C62.5911628,3.44264954 63.2319609,3.33091195 63.9106,3.33091195 C64.5738885,3.33091195 65.2071898,3.44264954 65.7919404,3.66329594 C66.3691941,3.88005274 66.8796907,4.20359673 67.3102213,4.62402712 C67.7428939,5.04693271 68.0920307,5.57662551 68.347993,6.19719349 C68.6057402,6.82306548 68.7360417,7.55607827 68.7360417,8.37536946 C68.7360417,9.20951184 68.6057402,9.95030383 68.347993,10.5758222 Z M69.673856,2.26516157 C68.9252468,1.55831518 68.04348,1.01377119 67.0517602,0.646027194 C66.0675371,0.281112 65.0122729,0.0961792028 63.9163118,0.0961792028 C62.8342733,0.0961792028 61.783293,0.281112 60.7926442,0.645673594 C59.7937845,1.01306399 58.9045209,1.55760798 58.1494858,2.26374717 C57.3937368,2.97059356 56.7850678,3.84787514 56.3406145,4.87190073 C55.8958043,5.89521911 55.6701862,7.06669589 55.6701862,8.35415347 C55.6701862,9.65540145 55.8918774,10.8300606 56.3288338,11.8452462 C56.7657903,12.8621998 57.3669625,13.736299 58.1152147,14.4427918 C58.862396,15.1492846 59.7445198,15.6938286 60.7376676,16.0619262 C61.7215337,16.4271949 62.7767979,16.6117741 63.873116,16.6117741 C65.0733183,16.6117741 66.1931978,16.4109293 67.2016962,16.015251 C68.2166204,15.6170974 69.0998152,15.0442654 69.826648,14.312667 C70.5495539,13.5849582 71.1228808,12.7041406 71.5298501,11.694259 C71.9350344,10.6879134 72.140661,9.56417265 72.140661,8.35415347 C72.140661,7.06740309 71.9150429,5.89592631 71.4705897,4.87190073 C71.0254224,3.84858234 70.4210373,2.97165436 69.673856,2.26516157 L69.673856,2.26516157 Z" id="Fill-8"></path>
                        <path d="M55.0754382,15.4901557 L51.3845126,10.9552355 C51.3845126,10.9552355 54.3646699,9.88099871 54.3646699,6.13708179 C54.3646699,5.36588017 54.2336544,4.62084494 53.9759072,3.92283852 C53.7138761,3.2163457 53.3226144,2.59012008 52.8131889,2.06078086 C52.3051913,1.53462405 51.6801008,1.10959683 50.9557669,0.797368023 C50.2289341,0.484432014 49.4017869,0.325665609 48.4971727,0.325665609 L42.4904492,0.325665609 C42.2005729,0.325665609 41.9649591,0.559395216 41.9649591,0.846164825 L41.9649591,15.8402197 C41.9649591,16.1276965 42.2005729,16.3614261 42.4904492,16.3614261 L44.7559115,16.3614261 C45.0461448,16.3614261 45.2817586,16.1276965 45.2817586,15.8402197 L45.2814016,3.61874251 L48.6453238,3.61874251 C49.0030284,3.61874251 49.3318167,3.68309771 49.623121,3.81004012 C49.9172813,3.93875052 50.1732435,4.11484333 50.382797,4.33407533 C50.5909225,4.55118574 50.7526392,4.81815375 50.8643773,5.12649296 C50.9803992,5.44685457 51.0393027,5.79479698 51.0393027,6.16112659 C51.0393027,6.523213 50.9779003,6.86868021 50.8568805,7.18727382 C50.7372886,7.50127063 50.5687891,7.77566424 50.3563797,8.00338265 C50.1468262,8.22862585 49.9072855,8.37077306 49.6202651,8.49806906 C49.3375286,8.62395067 48.8327439,8.69962107 47.8485209,8.69962107 C47.8485209,8.69962107 46.7200736,8.69962107 46.441621,8.69962107 C46.1628113,8.69962107 45.949331,8.94784828 46.1624543,9.28907229 L51.4237815,16.1432549 C51.5215969,16.2797445 51.6815287,16.3614261 51.8514562,16.3614261 L54.7566456,16.3614261 C55.1846773,16.3614261 55.4699128,15.9721125 55.0754382,15.4901557" id="Fill-12"></path>
                        <path d="M39.1001098,0.325665609 L36.8207249,0.325665609 C36.5308485,0.325665609 36.2948778,0.55904161 36.2948778,0.846164812 L36.2948778,10.7713633 C36.2948778,11.1946225 36.2234796,11.5655489 36.0821114,11.8742417 C35.9418141,12.1808129 35.7479682,12.4410625 35.5052146,12.6468577 C35.2553212,12.8590177 34.9543781,13.0241489 34.6105962,13.1376545 C34.2557475,13.2546961 33.6570743,13.3141009 33.2397523,13.3141009 C32.8210023,13.3141009 32.188415,13.2543425 31.8257126,13.1362401 C31.4737199,13.0223809 31.164923,12.8565425 30.9075328,12.6429681 C30.6597813,12.4375265 30.4637935,12.1793985 30.3242102,11.8742417 C30.1831989,11.5651953 30.1118008,11.1942689 30.1118008,10.7713633 L30.1118008,0.846164812 C30.1118008,0.55904161 29.87583,0.325665609 29.5859536,0.325665609 L27.3144225,0.325665609 C27.0245461,0.325665609 26.7885754,0.55904161 26.7885754,0.846164812 L26.7885754,10.8505697 C26.7885754,11.7685153 26.9620728,12.5934641 27.3047837,13.3027857 C27.6457098,14.0092785 28.1208642,14.6192385 28.7170385,15.1156929 C29.3082149,15.6071969 30.0004197,15.9823665 30.7750893,16.2302401 C31.5386921,16.4742241 32.3679813,16.5979841 33.2397523,16.5979841 C34.0972437,16.5979841 34.919036,16.4742241 35.6829959,16.2302401 C36.4598074,15.9816593 37.1466573,15.6050753 37.7242681,15.1110961 C38.3036638,14.6157025 38.7698935,14.0071569 39.1097486,13.3027857 C39.4521025,12.5924033 39.625957,11.7674545 39.625957,10.8505697 L39.625957,0.846164812 C39.625957,0.55904161 39.3899862,0.325665609 39.1001098,0.325665609" id="Fill-10"></path>
                        <path d="M24.5431038,3.61697441 C24.8322662,3.61697441 25.066809,3.38395201 25.066809,3.09788961 L25.06788,0.850054399 C25.06788,0.563638398 24.8329801,0.330969597 24.5438178,0.330969597 L15.6968771,0.330969597 L15.6968771,3.61732801 L24.5431038,3.61697441" id="Fill-2"></path>
                        <path d="M24.5431038,16.3596579 C24.8322662,16.3596579 25.066809,16.1269891 25.066809,15.8405731 L25.06788,13.5930915 C25.06788,13.3066755 24.8329801,13.0740067 24.5438178,13.0740067 L15.6968771,13.0740067 L15.6968771,16.3603651 L24.5431038,16.3596579" id="Fill-3"></path>
                        <polyline id="Fill-1" points="14.2949746 16.3292475 8.89227887 12.8126956 0.541554741 16.3186395 5.45910027 10.6016349 0 7.0536126 8.51351185 7.0536126 14.2949746 0.341931188 14.2949746 7.0536126 22.5464554 7.0536126 14.2949746 10.5355117 14.2949746 16.3292475"></polyline>
                    </g>
                </g>
            </g>
        </g>
    </g>
</svg>