<svg viewBox="0 0 24 14" xmlns="http://www.w3.org/2000/svg"><path d="m23.68 7.861c-3.8311 4.0927-7.72 6.139-11.667 6.139-2.3911 0-4.8133-.77362-7.2667-2.3209-1.7511-1.148-3.2133-2.4207-4.3867-3.8182-.48-.4492-.48-.99822 0-1.6471 3.8844-4.1426 7.7689-6.2139 11.653-6.2139 3.9467 0 7.8356 2.0463 11.667 6.139.42667.59893.42667 1.1729 0 1.7219zm-11.68 3.689c2.6804 0 4.8533-2.0371 4.8533-4.55s-2.1729-4.55-4.8533-4.55-4.8533 2.0371-4.8533 4.55 2.1729 4.55 4.8533 4.55zm-.14667-1.925c-1.5979 0-2.8933-1.2144-2.8933-2.7125s1.2954-2.7125 2.8933-2.7125 2.8933 1.2144 2.8933 2.7125-1.2954 2.7125-2.8933 2.7125z"/></svg>
