<svg xmlns="http://www.w3.org/2000/svg" xmlns:xlink="http://www.w3.org/1999/xlink" width="84" height="35">
<defs>
  <path id="a" d="M.12597784.13910256H13.9207681v2.42043371H.12597784z"/>
  <path id="c" d="M.54394468.13910256H24.009434v2.42019516H.54394468z"/>
  <path id="e" d="M0 34.1025641h83.7649787V.13910256H0z"/>
</defs>
<g fill="none" fill-rule="evenodd">
  <path fill="#FEFEFE" d="M70.6811745.8995l-.8596596 2.41410256h13.9431064V.8995z"/>
  <g transform="translate(0 .758782)">
    <g transform="translate(46.468085)">
      <mask id="b" fill="#fff">
        <use xlink:href="#a"/>
      </mask>
      <path fill="#FEFEFE" d="M.12689362.13991026L13.0727234.13901282 13.9207681 2.5585c.0062532-.00358974-13.7894064.00358974-13.7894064 0S.12331915.13991026.12689362.13991026" mask="url(#b)"/>
    </g>
    <g transform="translate(17.87234)">
      <mask id="d" fill="#fff">
        <use xlink:href="#c"/>
      </mask>
      <path fill="#FEFEFE" d="M18.4413064.13991026c2.1339574.20641025 3.9882127.9701282 5.5681276 2.41858974 0 0-23.46548932.00179487-23.46548932 0V.13901282L18.4413064.13991026z" mask="url(#d)"/>
    </g>
    <mask id="f" fill="#fff">
      <use xlink:href="#e"/>
    </mask>
    <path fill="#FEFEFE" d="M.00178723 2.55410256H16.3031489V.14H.00178723zM83.7651574 7.08453846H68.2233702s.8480426-2.40153846.8435745-2.4024359h14.6982127v2.4024359zM61.9903021 7.08758974H46.5941745V4.6815641h14.5534468zM43.7094894 4.68102564c.3091915.79333333.6755744 1.47179487.6755744 2.4024359H18.4210213v-2.4024359h25.2884681zM.00178723 7.08346154H16.3031489v-2.4024359H.00178723zM66.6346085 11.6256538l.8534043-2.41320508 11.668851.00269231v2.40512817zM62.7389745 9.21119231l.8498298 2.41410259H51.1845064V9.21119231zM44.5905064 9.21074359c0 .82833331-.1036596 1.69076921-.343149 2.41500001H37.138634V9.21074359h7.4518724zM4.54582979 11.6253846h7.00685111V9.22294872H4.54582979zM23.1375319 11.6244872h6.9943404V9.21038462h-6.9943404zM58.0745617 14.2325256s.0026809 1.8271795.0008936 1.8316667h-6.8906808v-2.403343H64.315583l.8149787 2.2400097c.0035745.0008974.786383-2.2453846.7881702-2.2400097h13.2335745v2.403343H72.295583c0-.0044872-.0044681-1.8316667-.0044681-1.8316667l-.6335745 1.8316667-12.9494042-.0044872-.6335745-1.8271795zM23.1375319 13.6606795h20.0786809v-.0017949c-.4378724.805-1.2358724 1.7841026-1.9909788 2.4051282 0 0-18.0885957.0026923-18.0885957 0 0-.0044872.0008936-2.3997436.0008936-2.4033333M4.54582979 16.0632051h7.00685111v-2.4033333H4.54582979zM72.2954043 20.5934615h6.8567234v-2.4024359h-6.8567234zM58.0745617 18.1907564h-6.8897886v2.4024359c-.0035731-.0008974 6.8924695.0017949 6.8924695 0 0-.0008974.0071489-2.4024359-.0026809-2.4024359M70.9107447 18.1907501c-.0312766-.0044809-.8024681 2.4015448-.8355319 2.4024422l-9.7663405.0044872c-.0080425-.0035898-.8587659-2.4114103-.8596595-2.4069294h11.4615319zM23.135834 18.189859h18.0546383c.8239149.6910256 1.5691915 1.5408974 2.1518703 2.4033333.0330234-.0008974-20.2056149.0017949-20.2056149 0 0-.0008974-.0008937-2.4015385-.0008937-2.4033333M11.5515191 20.5930128v-2.4033333H4.55717838s.00178758 2.4024359 0 2.4024359c-.00178689 0 6.99076632.0008974 6.99434072.0008974M72.2954043 25.1246154h6.8558297v-2.4033333h-6.8558297zM51.1845957 25.1237179h6.8897873v-2.4024358h-6.8897873zM68.471617 25.1353846c.0017873-.0116667.8453617-2.4167949.858766-2.4141048h-8.3025958c-.0151915-.0017926.8507234 2.4024381.8507234 2.4024381s6.5913192.0215385 6.5931064.0116667M23.1367277 25.1230897c0 .0098718-.0008937-2.4024359 0-2.4033333h7.0988936s.0062553 2.4042308 0 2.4042308-7.0988936-.0035898-7.0988936-.0008975M44.3386851 22.7200256c.3431489.7242308.378 1.5866667.4468085 2.4141026h-7.5215745v-2.4141026h7.074766zM4.55744681 25.1228205h6.99434039v-2.4024359H4.55744681zM72.2954043 29.5615385h11.4686808v-2.4042308H72.2954043zM46.5940851 29.5615385H58.074383v-2.4042308H46.5940851zM66.9286979 29.5611795h-3.5020851l-.84-2.4042308h5.1517021zM.00123489 27.1572179v2.4033374H16.2909957c.007149.0035857-.0071489-2.4015425 0-2.4015425.007149 0-16.3085106-.0017949-16.28976081-.0017949M44.4870255 27.1572179c-.1715744.7933334-.328851 1.7589744-.905234 2.4042308l-.2153617-.0008974H18.420217v-2.4033334h26.0668085zM65.341366 34.0965513h-.3217022l-.8185532-2.408718h1.9802554zM72.2954043 34.1016667h11.4686808v-2.4132052H72.2954043zM18.4163745 34.0965513v-2.4051282s23.5351915.0026923 23.6031064.0026923c-1.5799149 1.5184615-3.7478298 2.3746154-6.0828511 2.4078205l-17.5166809-.0053846M46.5940851 34.1016667H58.074383v-2.4132052H46.5940851zM16.2914449 31.6987821s-.0071513 2.3979487 0 2.3979487c.0071466 0-16.28617256.0098718-16.28974703.0044871-.00446808-.0044871.00357447-2.4096153 0-2.4096153-.00446808 0 16.28259573.0143589 16.28974703.0071795" mask="url(#f)"/>
  </g>
</g>
</svg>
