<?xml version="1.0" encoding="UTF-8"?>
<svg width="36px" height="32px" viewBox="0 0 36 32" version="1.1" xmlns="http://www.w3.org/2000/svg" xmlns:xlink="http://www.w3.org/1999/xlink">
    <!-- Generator: sketchtool 54.1 (76490) - https://sketchapp.com -->
    <title>1094BFDE-1481-4045-8B1D-78191E107732</title>
    <desc>Created with sketchtool.</desc>
    <g id="Assets" stroke="none" stroke-width="1" fill="none" fill-rule="evenodd">
        <g transform="translate(-479.000000, -200.000000)" fill="#F8F8F9" id="Group">
            <g transform="translate(479.000000, 200.000000)">
                <g id="Elements-/-Buttons-/-SkipAdvert">
                    <g id="Group" transform="translate(9.000000, 6.000000)">
                        <path d="M14.695,9.403 L14.695,9.403 L14.695,9.403 L14.694,9.402 L1.1,0.134 L1.099,0.135 C0.985,0.05 0.846,0 0.695,0 C0.312,0 0,0.322 0,0.72 L0,1.612 L0,10 L0,18.387 L0,19.279 C0,19.677 0.312,20 0.695,20 C0.846,20 0.985,19.949 1.099,19.864 L1.1,19.865 L14.694,10.597 L14.695,10.596 L14.695,10.596 C14.879,10.466 15,10.248 15,10 C15,9.752 14.879,9.533 14.695,9.403" id="Fill-1"></path>
                        <rect id="Rectangle-5" x="14" y="0" width="4" height="20" rx="1"></rect>
                    </g>
                </g>
            </g>
        </g>
    </g>
</svg>