<svg viewBox="0 0 36 32" xmlns="http://www.w3.org/2000/svg"><g fill="#f8f8f9" fill-rule="evenodd"><path d="m6 6h24c.55 0 1 .449 1 1v18c0 .55-.45 1-1 1h-24c-.55 0-1-.45-1-1v-18c0-.551.45-1 1-1zm4.3333333 7c-.1840949 0-.3333333.1119288-.3333333.25v1.5c0 .1380712.1492384.25.3333333.25h15.3345541c.1840949 0 .3333333-.1119288.3333333-.25v-1.5c0-.1380712-.1492384-.25-.3333333-.25zm0 4c-.1840949 0-.3333333.1119288-.3333333.25v1.5c0 .1380712.1492384.25.3333333.25h10.3305257c.184095 0 .3333334-.1119288.3333334-.25v-1.5c0-.1380712-.1492384-.25-.3333334-.25z"/><path d="m27 25v6l-8-6z"/></g></svg>
