<svg height="40" viewBox="0 0 42 40" width="42" xmlns="http://www.w3.org/2000/svg"><g fill="none" fill-rule="evenodd"><path d="m0 0h42v40h-42z"/><g fill="#f8f8f9"><path d="m21.4319809 10.1020408c-.1336515-.0680272-.300716-.1020408-.4677804-.1020408-.2004773 0-.4343676.0680272-.601432.2040816l-8.0859189 6.1559181h-3.27446297c-.56801909 0-1.00238663.4757827-1.00238663 1.0200004v5.3070747c0 .5782313.46778043 1.0204082 1.00238663 1.0204082h3.27446297l8.0859189 6.0884354c.1670644.1360544.4009547.2040816.601432.2040816.1670644 0 .300716-.0340136.4677804-.1020408.3341289-.170068.5680191-.5442177.5680191-.9183674v-17.9591836c-.0334129-.4081633-.2338902-.7482994-.5680191-.9183674z"/><g fill-rule="nonzero" transform="translate(26 13)"><path d="m4.46296247 13.5900557c-.32587878.2556871-.79733108.1987855-1.05301819-.1270932-.25568711-.3258788-.19878552-.7973311.12709325-1.0530182 1.71115823-1.3425885 2.71296247-3.30231691 2.71296247-5.40938444 0-2.10804698-1.00169425-4.06782933-2.71296247-5.41050414-.32587877-.25568711-.38278036-.72713941-.12709325-1.05301819.25568711-.32587877.72713941-.38278036 1.05301819-.12709325 2.06545394 1.62057178 3.28703753 4.01056049 3.28703753 6.59061558 0 2.57910881-1.22171569 4.96902774-3.28703753 6.58949584z"/><path d="m1.463257 10.5898245c-.32575108.2558498-.79723173.1991836-1.05308151-.1265675-.25584977-.3257511-.19918357-.79723173.12656751-1.05308151.76747789-.60278863 1.213257-1.47464493 1.213257-2.41017549 0-.93582146-.44602755-1.80836337-1.21288512-2.4098836-.32591229-.25564439-.38287567-.72708923-.12723128-1.05300152s.72708923-.38287567 1.05300152-.12723128c1.12114194.87941957 1.78711488 2.1822299 1.78711488 3.5901164 0 1.40750577-.66557736 2.70924422-1.786743 3.5898245z"/></g></g></g></svg>