<svg viewBox="0 0 80 80" xmlns="http://www.w3.org/2000/svg"><g fill="none" fill-rule="evenodd" transform="translate(0 -.216394)"><g fill="#f8f8f9" transform="translate(-.000166 20.216394)"><path d="m22.5414721 38.0539074-12.1392004-18.0539074 12.1392004-18.05390744.2945037-.43871843c.1059003-.15629768.1687681-.34378708.1687681-.54619427 0-.53093745-.426627-.96117986-.9527666-.96117986h-.3817498-7.7616516c-.4898309 0-.9215008.24885574-1.1790234.62756399l-12.49152896 18.57535171v.0027124c-.14960519.2278352-.23802354.5004238-.23802354.7943719 0 .2936091.08841835.5661977.23802354.7943719v.0023733l12.48883946 18.5743346c.2602121.3797254.691882.6289202 1.1813767.6289202h8.1437376-.3817498c.5261396 0 1.3345164-.4302424 1.3345164-.9611799 0-.2024071-.0628678-.3898966-.1687681-.5448381z"/><path d="m42.5416383 38.0539074-12.1392004-18.0539074 12.1392004-18.05390744.2945037-.43871843c.1059003-.15629768.1687681-.34378708.1687681-.54619427 0-.53093745-.426627-.96117986-.9527666-.96117986h-.3817497-7.7616517c-.4898309 0-.9215007.24885574-1.1790234.62756399l-12.4915289 18.57535171v.0027124c-.1496052.2278352-.2380236.5004238-.2380236.7943719 0 .2936091.0884184.5661977.2380236.7943719v.0023733l12.4888394 18.5743346c.2602122.3797254.691882.6289202 1.1813767.6289202h8.1437376-.3817497c.5261396 0 1.3345163-.4302424 1.3345163-.9611799 0-.2024071-.0628678-.3898966-.1687681-.5448381z"/></g><text/></g></svg>
