<svg height="40" viewBox="0 0 42 40" width="42" xmlns="http://www.w3.org/2000/svg"><g fill="none" fill-rule="evenodd"><path d="m0 0h42v40h-42z"/><path d="m21.4319809 10.1020408c-.1336515-.0680272-.300716-.1020408-.4677804-.1020408-.2004773 0-.4343676.0680272-.601432.2040816l-8.0859189 6.1559181h-3.27446297c-.56801909 0-1.00238663.4757827-1.00238663 1.0200004v5.3070747c0 .5782313.46778043 1.0204082 1.00238663 1.0204082h3.27446297l8.0859189 6.0884354c.1670644.1360544.4009547.2040816.601432.2040816.1670644 0 .300716-.0340136.4677804-.1020408.3341289-.170068.5680191-.5442177.5680191-.9183674v-17.9591836c-.0334129-.4081633-.2338902-.7482994-.5680191-.9183674z" fill="#f8f8f9"/><path d="m4.2854385 3.22477833 2.75510841-2.75510842c.29289322-.29289321.76776695-.29289321 1.06066017 0 .29289322.29289322.29289322.76776696 0 1.06066018l-2.75510841 2.75510841 2.75510841 2.75510841c.29289322.29289322.29289322.76776695 0 1.06066017s-.76776695.29289322-1.06066017 0l-2.75510841-2.75510841-2.75510841 2.75510841c-.29289322.29289322-.76776696.29289322-1.06066018 0-.29289321-.29289322-.29289321-.76776695 0-1.06066017l2.75510842-2.75510841-2.75510842-2.75510841c-.29289321-.29289322-.29289321-.76776696 0-1.06066018.29289322-.29289321.76776696-.29289321 1.06066018 0z" fill="#9798a6" transform="translate(25 16)"/></g></svg>