<svg height="12" viewBox="0 0 14 12" width="14" xmlns="http://www.w3.org/2000/svg"><g fill="#f8f8f9" fill-rule="evenodd"><path d="m.14096669.58382777-.08961308-.13202238c-.03222388-.04648245-.05135361-.10272927-.05135361-.16345143 0-.15928124.24597696-.28835396.40607339-.28835396h-.11616076 2.47801774c.14894594 0 .28029661.07475843.35947529.18867605l3.80016733 5.57230039v.00071198c.04552263.06845228.07242701.15022885.07242701.23831158 0 .08818444-.02690438.16996101-.07242701.23831158v.0008137l-3.80098571 5.57260552c-.0783603.1136125-.20971097.1882692-.35875921.1882692h-2.47791544c-.16009643 0-.28991263-.1290727-.28991263-.288354 0-.0607221.01912973-.1169689.05135361-.1638582l.08961308-.1316156 3.69377738-5.4161722z"/><path d="m7.14096669.58382777-.08961308-.13202238c-.03222388-.04648245-.05135361-.10272927-.05135361-.16345143 0-.15928124.24597696-.28835396.40607338-.28835396h-.11616075 2.47801774c.14894594 0 .28029663.07475843.35947533.18867605l3.8001673 5.57230039v.00071198c.0455226.06845228.072427.15022885.072427.23831158 0 .08818444-.0269044.16996101-.072427.23831158v.0008137l-3.8009857 5.57260552c-.0783603.1136125-.20971099.1882692-.35875923.1882692h-2.47791544c-.16009643 0-.28991263-.1290727-.28991263-.288354 0-.0607221.01912973-.1169689.05135361-.1638582l.08961308-.1316156 3.69377741-5.4161722z"/></g></svg>