<?xml version="1.0" encoding="utf-8"?>
<svg version="1.1" id="Layer_1" xmlns="http://www.w3.org/2000/svg" xmlns:xlink="http://www.w3.org/1999/xlink" x="0px" y="0px"
	 viewBox="0 0 49.7 55.1" style="enable-background:new 0 0 49.7 55.1;" xml:space="preserve">
<g id="XMLID_4_">
	<path fill="#C6C7CE" id="XMLID_6_" class="st0" d="M41.4,38.9c-2.1,0-4,0.8-5.4,2.1L16.3,29.6c0.2-0.6,0.2-1.3,0.2-1.9s-0.1-1.3-0.2-1.9l19.5-11.4
		c1.5,1.4,3.5,2.2,5.6,2.2c4.6,0,8.3-3.7,8.3-8.3S46,0,41.4,0s-8.3,3.7-8.3,8.3c0,0.7,0.1,1.3,0.2,1.9L13.9,21.6
		c-1.5-1.4-3.5-2.2-5.6-2.2c-4.6,0-8.3,3.7-8.3,8.3S3.7,36,8.3,36c2.2,0,4.2-0.9,5.6-2.2l19.7,11.5c-0.1,0.6-0.2,1.2-0.2,1.8
		c0,4.4,3.6,8,8,8s8-3.6,8-8C49.4,42.5,45.8,38.9,41.4,38.9z"/>
</g>
</svg>
