<?xml version="1.0" encoding="utf-8"?>
<!-- Generator: Adobe Illustrator 19.0.0, SVG Export Plug-In . SVG Version: 6.00 Build 0)  -->
<svg version="1.1" id="Layer_1" xmlns="http://www.w3.org/2000/svg" xmlns:xlink="http://www.w3.org/1999/xlink" x="0px" y="0px"
	 viewBox="-400 575.5 40 40" style="enable-background:new -400 575.5 40 40;" xml:space="preserve">
<style type="text/css">
	.st1{fill:#FFFFFF;}
</style>
<title>sport-icons/white/winter-sports</title>
<desc>Created with Sketch.</desc>
<g>
	<g>
		<path class="st1" d="M-389.3,586.8c-0.1-0.1-0.2-0.2-0.4-0.2c-0.1,0-0.3,0.1-0.4,0.2c-2.2,2.5-3.4,5.7-3.4,9
			c0,3.2,1.2,6.4,3.3,8.8c0.1,0.1,0.2,0.2,0.4,0.2c0.1,0,0.3-0.1,0.4-0.2l0,0c0.2-0.2,0.2-0.5,0-0.7c-2-2.3-3-5.1-3-8.1
			c0-3,1.1-6,3.1-8.2C-389.1,587.3-389.1,587-389.3,586.8z"/>
		<path class="st1" d="M-369.9,586.9c-0.1-0.1-0.2-0.2-0.4-0.2c-0.1,0-0.3,0.1-0.4,0.2c-0.2,0.2-0.2,0.5,0,0.8
			c2,2.2,3.1,5.1,3.1,8.2c0,2.9-1.1,5.8-3,8.1c-0.2,0.2-0.2,0.5,0,0.7c0.1,0.1,0.2,0.2,0.4,0.2c0.2,0,0.3-0.1,0.4-0.2
			c2.1-2.4,3.2-5.6,3.2-8.8C-366.5,592.5-367.7,589.3-369.9,586.9z"/>
		<path class="st1" d="M-373.5,590.1c-0.2,0-0.3,0.1-0.4,0.2c-0.2,0.2-0.2,0.5-0.1,0.7c1.1,1.4,1.7,3.1,1.7,4.9
			c0,1.7-0.6,3.4-1.6,4.8c-0.1,0.2-0.2,0.5,0.1,0.7c0.1,0.1,0.2,0.2,0.3,0.2l0,0l0,0c0.2-0.1,0.4-0.1,0.5-0.3l0,0
			c1.2-1.6,1.8-3.4,1.8-5.4c0-2-0.7-4-2-5.6C-373.2,590.1-373.4,590.1-373.5,590.1z"/>
		<path class="st1" d="M-386.5,590c-0.2,0-0.3,0.1-0.4,0.2c-1.3,1.6-2,3.5-2,5.6c0,2,0.7,3.9,1.9,5.5c0.1,0.1,0.2,0.2,0.4,0.2
			c0.1,0,0.2-0.1,0.4-0.2c0.2-0.2,0.2-0.5,0.1-0.7c-1.1-1.4-1.7-3.1-1.7-4.8c0-1.8,0.6-3.6,1.8-5c0.2-0.2,0.1-0.5-0.1-0.7
			C-386.2,590-386.3,590-386.5,590z"/>
		<path class="st1" d="M-380,591.5c-2.4,0-4.3,1.9-4.3,4.3c0,2.4,1.9,4.3,4.3,4.3c2.4,0,4.3-1.9,4.3-4.3
			C-375.7,593.4-377.6,591.5-380,591.5z M-376.8,595.7c0,1.7-1.4,3.2-3.2,3.2c-1.7,0-3.2-1.4-3.2-3.2c0-1.7,1.4-3.2,3.2-3.2
			C-378.3,592.6-376.8,594-376.8,595.7z"/>
	</g>
</g>
</svg>
