<?xml version="1.0" encoding="UTF-8"?>
<svg width="32px" height="32px" viewBox="0 0 32 32" version="1.1" xmlns="http://www.w3.org/2000/svg" xmlns:xlink="http://www.w3.org/1999/xlink">
    <!-- Generator: Sketch 54.1 (76490) - https://sketchapp.com -->
    <title>Combined Shape</title>
    <desc>Created with Sketch.</desc>
    <g id="Responsive-web" stroke="none" stroke-width="1" fill="none" fill-rule="evenodd">
        <g id="RESPONSIVE----1366px-----AFTER-MATCH" transform="translate(-544.000000, -446.000000)" fill="#0094F8">
            <g id="Group-35" transform="translate(0.000000, 420.000000)">
                <g id="Group-6" transform="translate(544.000000, 26.000000)">
                    <path d="M0,15.99984 C0,7.16359164 7.16342606,0 15.9997333,0 C24.8360406,0 32,7.1633783 32,15.99984 C32,24.835875 24.8360406,32 15.9997333,32 C7.16342606,32 0,24.835875 0,15.99984 Z M13.7182275,7.08385736 C15.3216023,7.91225507 16.4074217,9.18699184 17.5526894,10.3940832 C18.3709479,11.2563899 19.3396878,11.8733093 20.4750041,12.2364721 C21.8887846,12.6887647 23.3137278,12.78937 24.7693903,12.4348355 C23.2098879,8.32675592 18.4498662,5.70118126 13.7182275,7.08385736 Z M25.5503876,15.0054283 C25.4993596,14.7959852 25.4482478,14.5865421 25.389176,14.3441961 C24.8524183,14.485495 24.3378649,14.6515129 23.8109106,14.7548148 C20.5139481,15.4008482 17.7684065,14.3932165 15.480944,11.9908006 C14.7144346,11.1857641 13.9722242,10.3320414 13.091593,9.66847085 C12.3740169,9.12774356 11.4727734,8.82334959 10.636467,8.45097847 C10.5093579,8.39435868 10.2536313,8.48981062 10.1235057,8.5956178 C8.36660038,10.0240565 7.31277561,11.872968 6.86969495,14.0790518 C6.8132206,14.36023 6.75507046,14.6409906 6.69767442,14.9219183 C6.69767442,15.4786795 6.69767442,16.0353572 6.69767442,16.5921184 C6.87204107,17.3475499 7.0531109,18.1014783 7.21809309,18.8589975 C7.31101602,19.2859842 7.5519118,19.4908342 7.98862443,19.5948877 C9.43659659,19.9397005 10.8518069,19.8576937 12.2873782,19.4907507 C13.3768136,19.2123284 14.4940673,18.9100222 15.6063774,18.8787059 C18.2688832,18.8037974 20.5062394,19.8832478 22.3787747,21.7416794 C22.5458516,21.9074468 22.6924001,22.0937576 22.8969311,22.3255814 C23.2001665,21.9659038 23.4738241,21.6769592 23.7069274,21.3585355 C24.6976584,20.0050889 25.2937393,18.495395 25.474893,16.8259464 C25.4835233,16.7462779 25.5244965,16.6699497 25.5503876,16.5921184 L25.5503876,15.0054283 Z M9.94174757,22.3332169 C12.7645703,25.572155 17.8686569,26.0566908 21.1262136,23.6629004 C19.3956526,22.0793396 17.4419561,21.2044933 15.1358234,21.490679 C13.4085953,21.7049583 11.7622123,22.4602005 9.94174757,22.3332169 Z" id="Combined-Shape"></path>
                </g>
            </g>
        </g>
    </g>
</svg>