<?xml version="1.0" encoding="UTF-8"?>
<svg width="40px" height="40px" viewBox="0 0 40 40" version="1.1" xmlns="http://www.w3.org/2000/svg" xmlns:xlink="http://www.w3.org/1999/xlink">
    <!-- Generator: Sketch 42 (36781) - http://www.bohemiancoding.com/sketch -->
    <title>sport-icons/white/tennis</title>
    <desc>Created with Sketch.</desc>
    <defs></defs>
    <g id="Assets" stroke="none" stroke-width="1" fill="none" fill-rule="evenodd">
        <g transform="translate(-603.000000, -854.000000)" id="sport-icons-white" fill="#FFFFFF">
            <g transform="translate(423.000000, 536.000000)">
                <g id="sport-icon-white/tennis" transform="translate(180.000000, 318.000000)">
                    <path d="M30.7844063,9.5257 C29.9050063,8.6386 28.7465563,8.06675 27.4341563,7.87195 C26.2640563,7.6982 24.9945063,7.8265 23.7456563,8.2419 C23.2318063,7.7629 22.5684563,7.5 21.8649063,7.5 C21.1238063,7.5 20.4271563,7.79115 19.9032563,8.3197 C19.3792063,8.84825 19.0906563,9.551 19.0906563,10.29855 C19.0906563,10.62355 19.1453063,10.94005 19.2500563,11.2374 C17.8143063,12.82705 16.8984563,14.74185 16.6533063,16.67215 L16.6519563,16.67085 L16.2744563,19.78145 C15.9911563,22.11595 14.9484063,24.3383 13.3385063,26.03935 L13.1869563,26.19945 L13.1763063,26.18875 C13.0056563,26.01645 12.7288063,26.01655 12.5580063,26.18875 L7.62805625,31.1617 C7.45730625,31.334 7.45730625,31.6132 7.62810625,31.7854 L8.70405625,32.8708 C8.78610625,32.9535 8.89730625,33 9.01325625,33 C9.12920625,33 9.24040625,32.9535 9.32240625,32.8708 L14.2523063,27.89785 C14.3344063,27.8151 14.3804063,27.7029 14.3804063,27.586 C14.3804063,27.469 14.3343063,27.35685 14.2523063,27.27415 L14.2325563,27.2542 C16.0317063,25.41335 18.4127063,24.2704 20.9708563,24.0269 L22.8906063,23.84415 C23.1461563,23.8371 23.4057063,23.8177 23.6686563,23.7847 C25.7573563,23.5224 27.8179063,22.45975 29.4708563,20.79245 C31.1239063,19.12485 32.1775563,17.0461 32.4376563,14.939 C32.7029563,12.79085 32.1157563,10.8683 30.7844063,9.5257 Z M9.01320625,31.9353 L8.55545625,31.47355 L12.8670563,27.12425 L13.3248063,27.586 L9.01320625,31.9353 Z M23.1013563,10.2441 C23.1013563,9.8635 23.2107563,9.50005 23.4144063,9.18975 C23.6416563,9.51155 23.7647063,9.8954 23.7647063,10.2985 C23.7647063,10.6791 23.6553063,11.04255 23.4517563,11.35285 C23.2243563,11.031 23.1013563,10.64725 23.1013563,10.2441 Z M22.2269063,10.24415 C22.2269063,10.8742 22.4326563,11.472 22.8108063,11.96085 C22.5261063,12.12635 22.2023063,12.215 21.8649063,12.215 C21.5495563,12.215 21.2459563,12.13795 20.9751563,11.9928 C21.7637563,11.0003 21.7838063,9.5877 21.0352063,8.57395 C21.2905563,8.4487 21.5726563,8.3822 21.8649063,8.3822 C22.1798563,8.38205 22.4830063,8.459 22.7535063,8.6038 C22.4118063,9.078 22.2269063,9.6466 22.2269063,10.24415 Z M20.3170563,11.4096 C20.0886063,11.08735 19.9650563,10.7026 19.9650563,10.2985 C19.9650563,9.87145 20.1030063,9.46595 20.3570563,9.13295 C20.8378563,9.8138 20.8244563,10.7425 20.3170563,11.4096 Z M17.0863063,20.2891 C17.3730563,20.97395 17.7804563,21.5907 18.3021563,22.1169 C18.7850063,22.60405 19.3437563,22.99175 19.9610063,23.2761 C18.1454563,23.59685 16.4371563,24.3396 14.9676563,25.4424 C16.0616563,23.92355 16.7956063,22.1459 17.0863063,20.2891 Z M28.8524563,20.16875 C27.3365563,21.6979 25.4572563,22.6712 23.5606063,22.90945 C21.7047063,23.1426 20.0566563,22.6396 18.9205063,21.4932 C17.8047063,20.3679 17.3022563,18.73785 17.5059063,16.90335 C17.6950563,15.1995 18.4698063,13.49555 19.7026563,12.05165 C19.7652063,12.1298 19.8318063,12.2053 19.9031563,12.27735 C20.4271563,12.8059 21.1238063,13.0971 21.8649063,13.0971 C22.6059563,13.0971 23.3026063,12.8059 23.8265063,12.27735 C24.3505563,11.7488 24.6391063,11.0461 24.6391063,10.29855 C24.6391063,9.8335 24.5273063,9.38585 24.3167063,8.9866 C26.6052063,8.31365 28.7614563,8.7325 30.1662063,10.1495 C31.3025563,11.2955 31.8011563,12.9578 31.5700063,14.83005 C31.3337563,16.7433 30.3687063,18.6393 28.8524563,20.16875 Z" id="Page-1"></path>
                </g>
            </g>
        </g>
    </g>
</svg>