<?xml version="1.0" encoding="utf-8"?>
<!-- Generator: Adobe Illustrator 19.0.0, SVG Export Plug-In . SVG Version: 6.00 Build 0)  -->
<svg version="1.1" id="Layer_1" xmlns="http://www.w3.org/2000/svg" xmlns:xlink="http://www.w3.org/1999/xlink" x="0px" y="0px"
	 viewBox="0 0 40 40" style="enable-background:new 0 0 40 40;" xml:space="preserve">
<style type="text/css">
	.st0{fill:#FFFFFF;}
	.st1{fill:none;}
</style>
<g id="XMLID_4_">
	<g id="Responsive-web">
		<path id="Fill-1" class="st0" d="M20,8.8c-2.3,0-4.5,0.5-6.4,1.3c-1.9,0.9-3.5,2.1-4.6,3.6c-1.1,1.5-1.7,3.2-1.7,4.9
			c0,1.5,0.4,3,1.3,4.3c0.8,1.4,2,2.5,3.5,3.4l0.3,0.2L12.3,27c-0.1,0.3-0.3,0.6-0.4,0.9c-0.1,0.3-0.3,0.6-0.5,0.9l-0.4,0.6
			c-0.1,0.2-0.3,0.4-0.5,0.6c-0.2,0.2-0.4,0.4-0.4,0.5L9.7,31l0,0.1c0,0.1,0,0.1,0.1,0.1l0.1,0c0.5-0.1,1.1-0.2,1.5-0.3
			c1.8-0.5,3.5-1.4,5-2.5l0.2-0.1l0.2,0c3.5,0.7,6.8,0.3,9.6-1c1.9-0.9,3.5-2.1,4.6-3.6c1.1-1.5,1.7-3.2,1.7-4.9
			c0-1.8-0.6-3.4-1.7-4.9c-1.1-1.5-2.7-2.7-4.6-3.6C24.5,9.2,22.3,8.8,20,8.8L20,8.8z M9.9,32.2L9.9,32.2c-0.4,0-0.6-0.1-0.8-0.3
			c-0.2-0.2-0.3-0.4-0.4-0.7c0,0,0-0.1,0-0.2c0-0.1,0-0.1,0-0.2c0-0.1,0-0.2,0.1-0.2l0.4-0.6c0.1-0.1,0.2-0.3,0.4-0.5
			c0.2-0.2,0.4-0.4,0.5-0.6l0.4-0.6c0.2-0.2,0.3-0.5,0.4-0.7c0.1-0.2,0.1-0.3,0.2-0.5c-1.4-1-2.6-2.2-3.5-3.5
			c-0.9-1.5-1.4-3.1-1.4-4.8c0-2,0.6-3.8,1.9-5.5c1.2-1.7,2.9-3,5-4c2.1-1,4.4-1.4,6.8-1.4s4.7,0.5,6.8,1.4c2.1,1,3.8,2.3,5,4
			c1.2,1.7,1.9,3.5,1.9,5.5c0,2-0.6,3.8-1.9,5.5c-1.2,1.7-2.9,3-5,4c-3,1.4-6.4,1.8-10,1.1c-1.5,1.2-3.3,2-5.2,2.6
			C11.2,32,10.6,32.1,9.9,32.2L9.9,32.2z"/>
	</g>
</g>
</svg>
